<mxfile host="app.diagrams.net" modified="2024-05-31T15:07:20.301Z" agent="Mozilla/5.0 (X11; Linux x86_64) AppleWebKit/537.36 (KHTML, like Gecko) Chrome/124.0.0.0 Safari/537.36" version="24.4.13" etag="NEmetOIqNE1_uikAoNuG" type="github">
  <diagram name="Page-1" id="DUHl2GO-ORB3OP8B6nXg">
    <mxGraphModel>
      <root>
        <mxCell id="0" />
        <mxCell id="1" parent="0" />
      </root>
    </mxGraphModel>
  </diagram>
</mxfile>
